<svg xmlns="http://www.w3.org/2000/svg" viewBox="0 0 44 44"><defs><style>.cls-1{fill:#0bbbef;}</style></defs><g id="socket"><path class="cls-1" d="M41,0H3A3,3,0,0,0,0,3V41a3,3,0,0,0,3,3H41a3,3,0,0,0,3-3V3A3,3,0,0,0,41,0Zm1,41a1,1,0,0,1-1,1H3a1,1,0,0,1-1-1V3A1,1,0,0,1,3,2H41a1,1,0,0,1,1,1Z"/><path class="cls-1" d="M26.29,7.62a1,1,0,0,0-.57,1.92A13,13,0,0,1,23,35V33a1,1,0,0,0-2,0v3a1,1,0,0,0,1,1A15,15,0,0,0,26.29,7.62Z"/><path class="cls-1" d="M18.28,34.46A13,13,0,0,1,21,9v2a1,1,0,0,0,2,0V8a1,1,0,0,0-1-1,15,15,0,0,0-4.29,29.38,1,1,0,0,0,.29,0A1,1,0,0,0,19,35.7,1,1,0,0,0,18.28,34.46Z"/></g><g id="battery_charge"><path class="cls-1" d="M22,30a1,1,0,0,1-1-1V24a1,1,0,0,1,2,0v5A1,1,0,0,1,22,30Z"/><line class="cls-1" x1="29.54" y1="20.54" x2="26" y2="17"/><path class="cls-1" d="M29.54,21.54a1,1,0,0,1-.71-.3l-3.54-3.53a1,1,0,0,1,1.42-1.42l3.53,3.54a1,1,0,0,1,0,1.41A1,1,0,0,1,29.54,21.54Z"/><line class="cls-1" x1="18" y1="17" x2="14.46" y2="20.54"/><path class="cls-1" d="M14.46,21.54a1,1,0,0,1-.7-.3,1,1,0,0,1,0-1.41l3.53-3.54a1,1,0,0,1,1.42,1.42l-3.54,3.53A1,1,0,0,1,14.46,21.54Z"/></g></svg>