<svg xmlns="http://www.w3.org/2000/svg" viewBox="0 0 44 44"><defs><style>.cls-1,.cls-2{fill:#0bbbef;}.cls-2{opacity:0.15;}</style></defs><g id="nuclear"><path class="cls-1" d="M22,0A22,22,0,1,0,44,22,22,22,0,0,0,22,0Zm0,42A20,20,0,1,1,42,22,20,20,0,0,1,22,42Z"/></g><g id="diode"><path class="cls-2" d="M25.46,33.91a.87.87,0,0,1-.8-.53L14.74,9.93,10.52,23.45a.86.86,0,1,1-1.65-.51L13.8,7.17a.86.86,0,0,1,.78-.6.82.82,0,0,1,.83.52l10,23.52,2.23-6.7a.87.87,0,0,1,1.09-.55.86.86,0,0,1,.55,1.09l-3,8.87a.86.86,0,0,1-.78.59Z"/><path class="cls-1" d="M18.86,38a.81.81,0,0,1-.78-.58L12.26,17.91l-2,5.93a.82.82,0,0,1-.77.55H4.6a.82.82,0,0,1-.82-.81.82.82,0,0,1,.82-.82H8.92L11.53,15a.81.81,0,0,1,.77-.55h0a.8.8,0,0,1,.76.58L18.65,33.6,22.92,8.66A.81.81,0,0,1,23.66,8a.79.79,0,0,1,.83.56l4.63,14.21h4.44a.82.82,0,0,1,.81.82.81.81,0,0,1-.81.81h-5a.8.8,0,0,1-.77-.56L24,12.18,19.66,37.3a.8.8,0,0,1-.75.67Z"/><path class="cls-1" d="M36.61,26.76A3.78,3.78,0,1,1,40.39,23,3.78,3.78,0,0,1,36.61,26.76Zm0-5.93A2.15,2.15,0,1,0,38.76,23,2.15,2.15,0,0,0,36.61,20.83Z"/></g></svg>