<svg xmlns="http://www.w3.org/2000/svg" viewBox="0 0 44 44"><defs><style>.cls-1{fill:#f07e31;}</style></defs><g id="battery_charge"><path class="cls-1" d="M18,18a1,1,0,0,0,1-1V15h2a1,1,0,0,0,0-2H19V11a1,1,0,0,0-2,0v2H15a1,1,0,0,0,0,2h2v2A1,1,0,0,0,18,18Z"/><path class="cls-1" d="M19,42H10a1,1,0,0,1-1-1V7a1,1,0,0,1,1-1h8a1,1,0,0,0,0-2H10A3,3,0,0,0,7,7V41a3,3,0,0,0,3,3h9a1,1,0,0,0,0-2Z"/><path class="cls-1" d="M29.6,30.2a1,1,0,0,0-1.4.2l-3,4A1,1,0,0,0,26,36h2l-1.8,2.4a1,1,0,0,0,.2,1.4,1,1,0,0,0,.6.2,1,1,0,0,0,.8-.4l3-4A1,1,0,0,0,30,34H28l1.8-2.4A1,1,0,0,0,29.6,30.2Z"/><path class="cls-1" d="M29,26.06V7a3,3,0,0,0-3-3H23V1a1,1,0,0,0-1-1H14a1,1,0,0,0,0,2h7V5a1,1,0,0,0,1,1h4a1,1,0,0,1,1,1V27a1,1,0,0,0,1,1,7,7,0,1,1-3.39.87,1,1,0,1,0-1-1.74A9,9,0,0,0,19.24,33H15a1,1,0,0,0,0,2h4a9,9,0,1,0,10-8.94Z"/></g></svg>