<svg xmlns="http://www.w3.org/2000/svg" viewBox="0 0 44 44"><defs><style>.cls-1{fill:#d3d3d3;}</style></defs><g id="diode"><path class="cls-1" d="M2.56,7.6V3.87c0-.33,0-.35.37-.3.71.1,1.42.22,2.14.3a20.57,20.57,0,0,0,4.64,0c.58-.05,1.17-.06,1.74-.16,1.25-.2,2.51-.4,3.74-.69A18.18,18.18,0,0,0,19,1.67,24.8,24.8,0,0,0,21.86,0a.33.33,0,0,1,.29,0c.51.31,1,.66,1.52,1,.68.37,1.39.72,2.1,1a19,19,0,0,0,3.9,1.24c.83.17,1.67.29,2.5.42A25.82,25.82,0,0,0,37.06,4C38,4,39,3.85,40,3.75c.39,0,.77-.13,1.16-.19s.32,0,.31.27c0,2.32-.1,4.64-.17,7,0,1.06-.1,2.13-.17,3.19s-.17,2-.29,3c-.19,1.53-.41,3.06-.65,4.58-.13.83-.31,1.66-.51,2.47-.3,1.19-.62,2.37-1,3.53-.26.83-.58,1.64-.92,2.44A23.11,23.11,0,0,1,36,33.27a20.41,20.41,0,0,1-2.3,2.94,17.76,17.76,0,0,1-2.55,2.27c-.9.65-1.81,1.3-2.76,1.88-1.4.86-2.83,1.66-4.26,2.48-.66.38-1.33.76-2,1.13a.28.28,0,0,1-.22,0l-2.35-1.32c-1.19-.68-2.38-1.35-3.55-2a28.11,28.11,0,0,1-3.34-2.28,21.67,21.67,0,0,1-3.06-2.92A20.74,20.74,0,0,1,7.25,32a22.45,22.45,0,0,1-1.58-3.5c-.33-1-.65-2-.94-3a35.31,35.31,0,0,1-1-4.34c-.12-.75-.22-1.5-.34-2.24a59.72,59.72,0,0,1-.59-6C2.75,11.35,2.67,9.72,2.56,7.6ZM40,8.72V5.52c0-.61.1-.64-.61-.51a22,22,0,0,1-3.13.35,27.33,27.33,0,0,1-4.52-.22,26.31,26.31,0,0,1-4.37-.91,18.47,18.47,0,0,1-3.71-1.6c-.49-.28-1-.6-1.44-.89a.47.47,0,0,0-.33,0,2.77,2.77,0,0,0-.37.22c-.65.39-1.28.81-1.95,1.16a16,16,0,0,1-3.2,1.25,25.83,25.83,0,0,1-3,.64,31.51,31.51,0,0,1-3.49.36,29.56,29.56,0,0,1-3.26-.06c-.74,0-1.48-.2-2.22-.31-.29,0-.34,0-.34.28,0,1.84,0,3.68.12,5.52.06,1.56.17,3.12.27,4.69.06.76.13,1.52.22,2.28S4.85,19.21,5,20s.25,1.63.41,2.44.33,1.52.52,2.27.36,1.47.61,2.18c.36,1,.73,2,1.17,3a18.7,18.7,0,0,0,1.94,3.35,18.32,18.32,0,0,0,2.7,3,20.13,20.13,0,0,0,2.8,2.14c1.19.75,2.4,1.47,3.61,2.18,1.05.61,2.11,1.19,3.17,1.78a.37.37,0,0,0,.29,0c.46-.26.9-.54,1.35-.8,1.38-.8,2.76-1.57,4.13-2.38a26.37,26.37,0,0,0,3.49-2.45,18.27,18.27,0,0,0,3.46-3.78,19.28,19.28,0,0,0,2.21-4.19c.37-1,.72-2,1-3,.33-1.18.6-2.38.85-3.58.2-1,.35-2,.49-3.05.16-1.23.32-2.46.41-3.7C39.73,13.34,39.82,11.3,40,8.72Zm-1.22.48s0,.1,0,.28c0,.86,0,1.45-.09,2.31-.09,1.54-.19,3.07-.32,4.6-.1,1.17-.24,2.34-.4,3.51-.14,1-.3,2-.52,2.91-.28,1.25-.59,2.49-1,3.7a24.81,24.81,0,0,1-1,2.64,15.23,15.23,0,0,1-.8,1.62,18,18,0,0,1-2,2.8,17.38,17.38,0,0,1-2.34,2.28,21.79,21.79,0,0,1-1.92,1.39c-.72.48-1.45.93-2.19,1.37-.55.34-1.12.64-1.68,1l-2.3,1.29a.44.44,0,0,1-.5,0c-1-.56-2-1.09-2.95-1.66s-2.16-1.26-3.2-2a27,27,0,0,1-2.35-1.75,13.9,13.9,0,0,1-2.2-2.27c-.32-.41-.65-.81-.93-1.24A19.56,19.56,0,0,1,8.46,29a26.66,26.66,0,0,1-1.28-3.64,35.13,35.13,0,0,1-.95-4.42c-.18-1.17-.36-2.35-.49-3.53-.14-1.41-.27-2.83-.33-4.24-.09-2.24-.12-4.39-.18-6.64,0-.33.12-.5.41-.44a20.72,20.72,0,0,0,3.59.44,22.88,22.88,0,0,0,3.61-.22c.82-.11,1.64-.23,2.45-.39a14.85,14.85,0,0,0,1.88-.5,22.74,22.74,0,0,0,2.51-1,19.67,19.67,0,0,0,2-1.2.44.44,0,0,1,.56,0A13.86,13.86,0,0,0,23.58,4a18.07,18.07,0,0,0,2.05,1c.95.34,1.92.62,2.89.89a11.74,11.74,0,0,0,1.59.29c.9.12,1.8.25,2.71.31a20.23,20.23,0,0,0,4.6-.16c.35-.06,1.22-.44,1.35.4Zm-17,29.69v-34L21.48,5c-.71.4-1.4.84-2.13,1.2a13.15,13.15,0,0,1-3,1c-.84.19-1.68.35-2.52.47a22.09,22.09,0,0,1-2.29.19c-.89,0-1.78,0-2.67-.07-.53,0-1.06-.15-1.59-.22s-.5-.07-.5.43a86.16,86.16,0,0,0,.41,9.37c.14,1.37.35,2.72.56,4.08a27,27,0,0,0,.91,3.88,18.24,18.24,0,0,0,.62,1.85,27.18,27.18,0,0,0,1.25,2.61A15,15,0,0,0,12,32a17.75,17.75,0,0,0,1.76,1.82,10.3,10.3,0,0,0,1.36,1.11c.9.61,1.81,1.21,2.74,1.76,1.13.68,2.28,1.31,3.43,2Z"/></g></svg>