<svg xmlns="http://www.w3.org/2000/svg" viewBox="0 0 44 44"><defs><style>.cls-1{fill:#0bbbef;}</style></defs><g id="sun"><path class="cls-1" d="M24.89,21.55A1,1,0,0,0,24,21H22l1.8-2.4a1,1,0,1,0-1.6-1.2l-3,4a1,1,0,0,0-.09,1.05A1,1,0,0,0,20,23h2l-1.8,2.4a1,1,0,0,0,.2,1.4,1,1,0,0,0,.6.2,1,1,0,0,0,.8-.4l3-4A1,1,0,0,0,24.89,21.55Z"/><path class="cls-1" d="M10.82,12.24a2.93,2.93,0,0,0,2.06.85,3,3,0,0,0,1.84-.63,12,12,0,0,1,3.59-1.88A1,1,0,0,0,19,9.32a1,1,0,0,0-1.26-.64,13.71,13.71,0,0,0-4.18,2.19,1,1,0,0,1-1.27,0L7.86,6.44A1,1,0,0,0,6.44,7.86Z"/><path class="cls-1" d="M10.58,25.69a1,1,0,1,0-1.9.62,13.71,13.71,0,0,0,2.19,4.18,1,1,0,0,1,0,1.27L6.44,36.14a1,1,0,0,0,0,1.42,1,1,0,0,0,.71.29,1,1,0,0,0,.71-.29l4.38-4.38a3,3,0,0,0,.22-3.91A11.8,11.8,0,0,1,10.58,25.69Z"/><path class="cls-1" d="M10.11,20.4a11.86,11.86,0,0,1,1.2-3.87,1,1,0,0,0-.43-1.34,1,1,0,0,0-1.35.43,14.2,14.2,0,0,0-1.41,4.51A1,1,0,0,1,7.2,21H1a1,1,0,0,0,0,2H7.2A2.94,2.94,0,0,0,10.11,20.4Z"/><path class="cls-1" d="M20.32,33.89a11.73,11.73,0,0,1-3.86-1.2,1,1,0,0,0-1.35.43,1,1,0,0,0,.43,1.35,14.28,14.28,0,0,0,4.51,1.41,1,1,0,0,1,.87.92V43a1,1,0,0,0,2,0V36.8A2.94,2.94,0,0,0,20.32,33.89Z"/><path class="cls-1" d="M33.1,31.76a2.94,2.94,0,0,0-3.9-.22,12,12,0,0,1-3.59,1.88A1,1,0,0,0,25,34.68a1,1,0,0,0,1.26.64,13.71,13.71,0,0,0,4.18-2.19,1,1,0,0,1,1.27,0l4.38,4.38a1,1,0,0,0,1.42,0,1,1,0,0,0,0-1.42Z"/><path class="cls-1" d="M33.34,18.31a1,1,0,0,0,.95.69A.84.84,0,0,0,34.6,19a1,1,0,0,0,.64-1.26,13.71,13.71,0,0,0-2.19-4.18,1,1,0,0,1,.05-1.27l4.38-4.38a1,1,0,0,0-1.42-1.42l-4.38,4.38a3,3,0,0,0-.22,3.91A11.92,11.92,0,0,1,33.34,18.31Z"/><path class="cls-1" d="M43,21H36.8a2.94,2.94,0,0,0-2.91,2.6,11.86,11.86,0,0,1-1.2,3.87,1,1,0,0,0,.43,1.34,1,1,0,0,0,.46.11,1,1,0,0,0,.89-.54,14.28,14.28,0,0,0,1.41-4.51A1,1,0,0,1,36.8,23H43a1,1,0,0,0,0-2Z"/><path class="cls-1" d="M23.6,10.11a11.86,11.86,0,0,1,3.87,1.2.91.91,0,0,0,.45.11,1,1,0,0,0,.46-1.89,14.28,14.28,0,0,0-4.51-1.41A1,1,0,0,1,23,7.2V1a1,1,0,0,0-2,0V7.2A2.94,2.94,0,0,0,23.6,10.11Z"/><path class="cls-1" d="M32,22A10,10,0,1,0,22,32,10,10,0,0,0,32,22ZM14,22a8,8,0,1,1,8,8A8,8,0,0,1,14,22Z"/></g></svg>